<?xml version="1.0" encoding="utf-8"?>
<!-- Generator: Adobe Illustrator 23.0.2, SVG Export Plug-In . SVG Version: 6.00 Build 0)  -->
<svg version="1.1" id="Layer_1" xmlns="http://www.w3.org/2000/svg" xmlns:xlink="http://www.w3.org/1999/xlink" x="0px" y="0px"
	 viewBox="0 0 25 25" style="enable-background:new 0 0 25 25;" xml:space="preserve">
<style type="text/css">
	.st0{fill:#0791E6;}
</style>
<g>
	<g>
		<g>
			<path class="st0" d="M12.5,25C19.4,25,25,19.4,25,12.5S19.4,0,12.5,0S0,5.6,0,12.5S5.6,25,12.5,25z M12.5,1.7
				c6,0,10.8,4.8,10.8,10.8s-4.8,10.8-10.8,10.8S1.7,18.5,1.7,12.5S6.5,1.7,12.5,1.7z"/>
		</g>
	</g>
	<g>
		<g>
			<path class="st0" d="M7.9,13l5.5,5.5c0.3,0.3,0.8,0.3,1.2,0c0.3-0.3,0.3-0.8,0-1.2l-4.8-4.8l4.8-4.8c0.3-0.3,0.3-0.8,0-1.2
				c-0.2-0.2-0.3-0.2-0.6-0.2c-0.2,0-0.4,0.1-0.7,0.2l-5.4,5.4c-0.2,0.2-0.2,0.3-0.2,0.6C7.7,12.7,7.8,12.8,7.9,13z"/>
		</g>
	</g>
</g>
</svg>
