<svg id="_x31__x2C_5" enable-background="new 0 0 36 36" height="512" viewBox="0 0 36 36" width="512" xmlns="http://www.w3.org/2000/svg"><g><path d="m4.167 8.377c0 6.917-3.583 11.667-3.583 15s1.916 10.333 17.249 10.333 17.583-9.417 17.583-13.083c.001-17.167-31.249-24.5-31.249-12.25z" fill="#efefef"/></g><g><path d="m5.5 9c-.827 0-1.5-.673-1.5-1.5s.673-1.5 1.5-1.5 1.5.673 1.5 1.5-.673 1.5-1.5 1.5zm0-2c-.276 0-.5.224-.5.5s.224.5.5.5.5-.224.5-.5-.224-.5-.5-.5z" fill="#a4afc1"/></g><g><circle cx="10" cy="16" fill="#2fdf84" r="1.25"/></g><g><path d="m13.25 23v-1.25c0-1.105-.895-2-2-2h-2.5c-1.105 0-2 .895-2 2v1.25z" fill="#2fdf84"/></g><g><circle cx="18.75" cy="8" fill="#2fdf84" r="1.25"/></g><g><path d="m22 15v-1.25c0-1.105-.895-2-2-2h-2.5c-1.105 0-2 .895-2 2v1.25z" fill="#2fdf84"/></g><g><path d="m27.75 24.75c-.83 0-1.5.67-1.5 1.5v-2c0-.83-.67-1.5-1.5-1.5s-1.5.67-1.5 1.5v-1c0-.83-.67-1.5-1.5-1.5s-1.5.67-1.5 1.5v-6c0-.83-.67-1.5-1.5-1.5s-1.5.67-1.5 1.5v7c0 1.08-3.5 1.13-3.5 5.5 0 .16.01.33.03 1.25h15.47v-4.75c0-.83-.67-1.5-1.5-1.5z" fill="#f3f3f1"/></g><g><path d="m19.5 24.25v-7c0-.379.144-.72.375-.984-.275-.314-.674-.516-1.125-.516-.83 0-1.5.67-1.5 1.5v7c0 1.08-3.5 1.13-3.5 5.5 0 .16.01.33.03 1.25h2.25c-.02-.92-.03-1.09-.03-1.25 0-4.37 3.5-4.42 3.5-5.5z" fill="#d5dbe1"/></g><g><path d="m11 16c0-.19.049-.365.125-.526-.2-.425-.625-.724-1.125-.724-.69 0-1.25.56-1.25 1.25s.56 1.25 1.25 1.25c.5 0 .925-.299 1.125-.724-.076-.161-.125-.336-.125-.526z" fill="#00b871"/></g><g><path d="m11 19.75h-2.25c-1.105 0-2 .895-2 2v1.25h2.25v-1.25c0-1.105.895-2 2-2z" fill="#00b871"/></g><g><path d="m19.75 8c0-.19.049-.365.125-.526-.2-.425-.625-.724-1.125-.724-.69 0-1.25.56-1.25 1.25s.56 1.25 1.25 1.25c.5 0 .925-.299 1.125-.724-.076-.161-.125-.336-.125-.526z" fill="#00b871"/></g><g><path d="m19.75 11.75h-2.25c-1.105 0-2 .895-2 2v1.25h2.25v-1.25c0-1.105.895-2 2-2z" fill="#00b871"/></g><g><path d="m22.248 5.219h2.55v1.5h-2.55z" transform="matrix(.909 -.417 .417 .909 -.347 10.346)"/></g><g><path d="m22.773 8.756h1.5v2.55h-1.5z" transform="matrix(.417 -.909 .909 .417 4.602 27.234)"/></g><g><path d="m13.227 4.694h1.5v2.55h-1.5z" transform="matrix(.417 -.909 .909 .417 2.727 16.188)"/></g><g><path d="m12.702 9.281h2.55v1.5h-2.55z" transform="matrix(.909 -.417 .417 .909 -2.909 6.738)"/></g><g><path d="m10 18c-1.103 0-2-.897-2-2s.897-2 2-2 2 .897 2 2-.897 2-2 2zm0-2.5c-.276 0-.5.224-.5.5s.224.5.5.5.5-.224.5-.5-.224-.5-.5-.5z"/></g><g><path d="m14 23h-1.5v-1.25c0-.689-.561-1.25-1.25-1.25h-2.5c-.689 0-1.25.561-1.25 1.25v1.25h-1.5v-1.25c0-1.517 1.233-2.75 2.75-2.75h2.5c1.517 0 2.75 1.233 2.75 2.75z"/></g><g><path d="m18.75 10c-1.103 0-2-.897-2-2s.897-2 2-2 2 .897 2 2-.897 2-2 2zm0-2.5c-.276 0-.5.224-.5.5s.224.5.5.5.5-.224.5-.5-.224-.5-.5-.5z"/></g><g><path d="m22.75 15h-1.5v-1.25c0-.689-.561-1.25-1.25-1.25h-2.5c-.689 0-1.25.561-1.25 1.25v1.25h-1.5v-1.25c0-1.517 1.233-2.75 2.75-2.75h2.5c1.517 0 2.75 1.233 2.75 2.75z"/></g><g><path d="m18 28.25h-1.5v-11c0-1.241 1.009-2.25 2.25-2.25s2.25 1.009 2.25 2.25v6h-1.5v-6c0-.414-.336-.75-.75-.75s-.75.336-.75.75z"/></g><g><path d="m21 25.25h-1.5v-2c0-1.241 1.009-2.25 2.25-2.25s2.25 1.009 2.25 2.25v1h-1.5v-1c0-.414-.336-.75-.75-.75s-.75.336-.75.75z"/></g><g><path d="m27 26.25h-1.5v-2c0-.414-.336-.75-.75-.75s-.75.336-.75.75v2h-1.5v-2c0-1.241 1.009-2.25 2.25-2.25s2.25 1.009 2.25 2.25z"/></g><g><path d="m30 31h-1.5v-4.75c0-.414-.336-.75-.75-.75s-.75.336-.75.75v.75h-1.5v-.75c0-1.241 1.009-2.25 2.25-2.25s2.25 1.009 2.25 2.25z"/></g><g><path d="m13.123 30.833-.087-.745.744-.088-.749.056c-.026-.103-.031-.184-.031-.306 0-3.331 1.844-4.502 2.946-5.202.195-.124.453-.287.554-.385v-.663h1.5v.75c0 .771-.635 1.174-1.25 1.564-1.002.637-2.25 1.429-2.25 3.936 0-.001 0-.002 0-.002 0 .001.012.052.025.165l.088.745z"/></g></svg>