<?xml version="1.0" encoding="utf-8"?>
<!-- Generator: Adobe Illustrator 23.0.2, SVG Export Plug-In . SVG Version: 6.00 Build 0)  -->
<svg version="1.1" id="Capa_1" xmlns="http://www.w3.org/2000/svg" xmlns:xlink="http://www.w3.org/1999/xlink" x="0px" y="0px"
	 viewBox="0 0 25 25" style="enable-background:new 0 0 25 25;" xml:space="preserve">
<style type="text/css">
	.st0{fill:#97CA3F;}
	.st1{fill:#E4E9A4;}
	.st2{fill:#F6F6F6;}
	.st3{fill:#D5E0F2;}
	.st4{fill:#333434;}
	.st5{fill:#2D4456;}
</style>
<path class="st0" d="M25,12.5c0-0.2,0-0.3,0-0.5C24.8,5.4,19.3,0,12.5,0S0.2,5.4,0,12c0,0.2,0,0.3,0,0.5c0,6.9,6.4,12,12.5,12
	C18.7,24.5,25,19.4,25,12.5z"/>
<path class="st1" d="M12.5,24.1C5.7,24.1,0.2,18.7,0,12c0,0.2,0,0.3,0,0.5C0,19.4,5.6,25,12.5,25S25,19.4,25,12.5c0-0.2,0-0.3,0-0.5
	C24.8,18.7,19.3,24.1,12.5,24.1z"/>
<path class="st2" d="M22.9,12c-0.2-5.6-4.8-10-10.4-10S2.3,6.5,2.1,12c0,0.2,0,10.2,10.4,10.2S22.9,12.2,22.9,12z"/>
<path class="st3" d="M12.5,22C6.9,22,2.3,17.6,2.1,12c0,0.2,0,0.3,0,0.5c0,5.8,4.7,10.4,10.4,10.4s10.4-4.7,10.4-10.4
	c0-0.2,0-0.3,0-0.5C22.7,17.6,18.1,22,12.5,22L12.5,22z"/>
<path class="st4" d="M16.3,8.8c-0.3-0.3-0.8-0.3-1.1,0l-1.8,1.8l0.2,0.9l0.8,0.3l1.8-1.9C16.6,9.6,16.6,9.1,16.3,8.8L16.3,8.8z"/>
<path class="st4" d="M11.4,10.7l-4-3.6C7.1,6.9,6.6,6.9,6.3,7.2C6.1,7.5,6.1,8,6.4,8.3l4.1,3.7l0.9-0.3L11.4,10.7z"/>
<path class="st1" d="M17.9,17.4c-0.1,0-0.2,0-0.2-0.1l-4.8-4c-0.2-0.1-0.2-0.4,0-0.5c0.1-0.2,0.4-0.2,0.5,0l4.8,4
	c0.2,0.1,0.2,0.4,0,0.5C18.1,17.3,18,17.4,17.9,17.4L17.9,17.4z"/>
<path class="st5" d="M10.5,11.9l0.7,0.6l0.9-0.3l0-1l-0.6-0.6C11,11,10.7,11.4,10.5,11.9L10.5,11.9z"/>
<path class="st5" d="M13.4,10.6l-0.6,0.6v1.2h0.9l0.7-0.7C14.3,11.3,13.9,10.9,13.4,10.6L13.4,10.6z"/>
<path class="st0" d="M13.7,12c-0.2-0.5-0.7-0.8-1.2-0.8c-0.6,0-1,0.3-1.2,0.8c-0.1,0.1,0,1.3,1.2,1.3C13.7,13.3,13.8,12.2,13.7,12
	L13.7,12z"/>
<path class="st1" d="M12.5,12.9c-0.6,0-1-0.3-1.2-0.8c-0.1,0.1-0.1,0.3-0.1,0.5c0,0.7,0.6,1.3,1.3,1.3c0.7,0,1.3-0.6,1.3-1.3
	c0-0.2,0-0.3-0.1-0.5C13.5,12.5,13.1,12.9,12.5,12.9L12.5,12.9z"/>
<g>
	<path class="st4" d="M12.9,4.6V3.4c0-0.2-0.2-0.4-0.4-0.4c-0.2,0-0.4,0.2-0.4,0.4v1.2c0,0.2,0.2,0.4,0.4,0.4
		C12.7,4.9,12.9,4.8,12.9,4.6z"/>
	<path class="st4" d="M12.1,20.4v1.2c0,0.2,0.2,0.4,0.4,0.4c0.2,0,0.4-0.2,0.4-0.4v-1.2c0-0.2-0.2-0.4-0.4-0.4
		C12.3,20.1,12.1,20.2,12.1,20.4L12.1,20.4z"/>
	<path class="st4" d="M21.6,12.9c0.2,0,0.4-0.2,0.4-0.4c0-0.2-0.2-0.4-0.4-0.4h-1.2c-0.2,0-0.4,0.2-0.4,0.4c0,0.2,0.2,0.4,0.4,0.4
		H21.6z"/>
	<path class="st4" d="M3.4,12.1c-0.2,0-0.4,0.2-0.4,0.4s0.2,0.4,0.4,0.4h1.2c0.2,0,0.4-0.2,0.4-0.4c0-0.2-0.2-0.4-0.4-0.4H3.4z"/>
</g>
</svg>
