<?xml version="1.0" encoding="utf-8"?>
<!-- Generator: Adobe Illustrator 23.0.2, SVG Export Plug-In . SVG Version: 6.00 Build 0)  -->
<svg version="1.1" id="Capa_1" xmlns="http://www.w3.org/2000/svg" xmlns:xlink="http://www.w3.org/1999/xlink" x="0px" y="0px"
	 viewBox="0 0 25 25" style="enable-background:new 0 0 25 25;" xml:space="preserve">
<style type="text/css">
	.st0{fill:#EFEFEF;}
	.st1{fill:#A4AFC1;}
	.st2{fill:#F3F3F1;}
	.st3{fill:#97CA3F;}
	.st4{fill:#E4E9A4;}
	.st5{fill:#D5DBE1;}
</style>
<g>
	<path class="st0" d="M5.6,22.4c5,0,8.4,2.6,10.8,2.6s7.4-1.4,7.4-12.4S17,0,14.4,0C2.1,0-3.2,22.4,5.6,22.4L5.6,22.4z"/>
</g>
<g>
	<g>
		<path class="st1" d="M19.7,8l0.5-0.5l1,1L20.7,9L19.7,8z"/>
	</g>
	<g>
		<path class="st1" d="M16.7,5l0.5-0.5l1,1l-0.5,0.5L16.7,5z"/>
	</g>
	<g>
		<path class="st1" d="M19.7,5.7l1-1l0.5,0.5l-1,1L19.7,5.7z"/>
	</g>
</g>
<g>
	<path class="st2" d="M14.8,17.7H4.4v-2.5c0-1.2,1-2.2,2.2-2.2h6.1c1.2,0,2.2,1,2.2,2.2V17.7z"/>
</g>
<g>
	<circle class="st2" cx="9.6" cy="7.8" r="2.7"/>
</g>
<g>
	<path class="st3" d="M12.3,7.7c-1.2,0.2-2-1.1-2-1.1C9.1,7.8,7.5,7.7,6.9,7.7C7,6.3,8.2,5.1,9.6,5.1S12.2,6.3,12.3,7.7z"/>
</g>
<g>
	<path class="st3" d="M19.2,15.9h-1.8c0,0,0.3-0.5,0.3-1.3c0-1-0.5-1.5-0.8-1.5c-0.3,0-0.7,0.3-0.7,1.2c0,0.9-1,1.7-1.5,2
		c-0.1-0.2-0.3-0.4-0.6-0.4h-0.4c-0.4,0-0.7,0.3-0.7,0.7v3.2c0,0.4,0.3,0.7,0.7,0.7h0.4c0.4,0,0.7-0.3,0.7-0.7v-0.2
		c0.4,0.2,1.7,0.9,3.6,0.9h0.4c0.7,0,1.3-0.5,1.4-1.1c0,0,0.4-2,0.4-2.1C20.6,16.5,20,15.9,19.2,15.9L19.2,15.9z"/>
</g>
<g>
	<path class="st4" d="M14.7,19.9v-3.2c0-0.2,0.1-0.3,0.1-0.4c0,0-0.1,0-0.1,0.1c-0.1-0.2-0.3-0.4-0.6-0.4h-0.4
		c-0.4,0-0.7,0.3-0.7,0.7v3.2c0,0.4,0.3,0.7,0.7,0.7h0.4c0.3,0,0.5-0.2,0.6-0.4C14.7,20.1,14.7,20,14.7,19.9L14.7,19.9z"/>
</g>
<g>
	<path class="st4" d="M15.4,15.9h0.4c0.3,0,0.5,0.1,0.6,0.4c0.4-0.3,1.1-0.9,1.4-1.6c0,0,0-0.1,0-0.1c0-1-0.5-1.5-0.8-1.5
		c-0.3,0-0.7,0.3-0.7,1.2c0,0.7-0.6,1.3-1.1,1.7C15.2,15.9,15.3,15.9,15.4,15.9L15.4,15.9z"/>
</g>
<g>
	<path class="st5" d="M8.2,13H6.6c-1.2,0-2.2,1-2.2,2.2v2.5H6v-2.5C6,14,7,13,8.2,13z"/>
</g>
<g>
	<path class="st5" d="M8.6,7.8c0-1.2,0.8-2.2,1.9-2.6c-0.3-0.1-0.5-0.1-0.8-0.1c-1.5,0-2.7,1.2-2.7,2.7s1.2,2.7,2.7,2.7
		c0.3,0,0.6-0.1,0.8-0.1C9.3,10,8.6,9,8.6,7.8z"/>
</g>
<g>
	<path class="st4" d="M10.4,5.3c-0.3-0.1-0.5-0.1-0.8-0.1C8.2,5.1,7,6.3,6.9,7.7c0.3,0,0.9,0,1.6-0.1C8.7,6.5,9.4,5.6,10.4,5.3z"/>
</g>
<g>
	<path d="M11.1,18.2H4.4c-0.3,0-0.5-0.2-0.5-0.5v-2.5c0-1.5,1.2-2.7,2.7-2.7h6.3c0.4,0,0.8,0.1,1.2,0.3l0.5,0.2l-0.5,1l-0.5-0.2
		c-0.2-0.1-0.5-0.2-0.7-0.2H6.6c-0.9,0-1.6,0.7-1.6,1.6v2h6.1V18.2z"/>
</g>
<g>
	<path d="M12.1,8.2c-0.8,0-1.5-0.5-1.8-0.9c-1.4,1-2.9,0.9-3.4,0.9L7,7.1c0.4,0,1.9,0.1,3-1C10.1,6.1,10.3,6,10.4,6
		c0.2,0,0.3,0.1,0.4,0.3c0,0,0.6,1,1.4,0.8l0.2,1.1C12.3,8.2,12.2,8.2,12.1,8.2L12.1,8.2z"/>
</g>
<g>
	<path d="M9.6,11.1c-1.8,0-3.2-1.4-3.2-3.2s1.4-3.2,3.2-3.2s3.2,1.4,3.2,3.2S11.4,11.1,9.6,11.1z M9.6,5.7c-1.2,0-2.2,1-2.2,2.2
		s1,2.2,2.2,2.2s2.2-1,2.2-2.2S10.8,5.7,9.6,5.7z"/>
</g>
<g>
	<path d="M14.1,21.1h-0.4c-0.7,0-1.3-0.6-1.3-1.3v-3.2c0-0.7,0.6-1.3,1.3-1.3h0.4c0.7,0,1.3,0.6,1.3,1.3v3.2
		C15.4,20.5,14.8,21.1,14.1,21.1z M13.8,16.4c-0.1,0-0.2,0.1-0.2,0.2v3.2c0,0.1,0.1,0.2,0.2,0.2h0.4c0.1,0,0.2-0.1,0.2-0.2v-3.2
		c0-0.1-0.1-0.2-0.2-0.2H13.8z"/>
</g>
<g>
	<path d="M18.8,21.1h-0.4c-2,0-3.1-0.5-3.7-0.8l0.5-0.9c0.3,0.2,1.3,0.7,3.1,0.7h0.4c0.4,0,0.8-0.3,0.9-0.7c0,0,0,0,0-0.1
		c0.1-0.2,0.4-1.8,0.4-2c0-0.4-0.4-0.8-0.8-0.8h-1.8c-0.2,0-0.4-0.1-0.5-0.3c-0.1-0.2-0.1-0.4,0-0.6c0.1-0.2,0.2-0.4,0.2-1
		c0-0.6-0.3-0.9-0.3-1c0,0-0.1,0.2-0.1,0.7c0,1.2-1.2,2.1-1.7,2.4l-0.6-0.9c0.6-0.4,1.2-0.9,1.2-1.5c0-1.2,0.6-1.7,1.2-1.7
		c0.7,0,1.4,0.8,1.4,2.1c0,0.3,0,0.6-0.1,0.8h1c1.1,0,1.9,0.9,1.9,1.9c0,0.1,0,0.2-0.2,1.2c-0.1,0.5-0.1,0.8-0.2,1l0,0
		C20.6,20.4,19.7,21.1,18.8,21.1L18.8,21.1z"/>
</g>
</svg>
