<?xml version="1.0" encoding="utf-8"?>
<!-- Generator: Adobe Illustrator 23.0.2, SVG Export Plug-In . SVG Version: 6.00 Build 0)  -->
<svg version="1.1" id="Capa_1" xmlns="http://www.w3.org/2000/svg" xmlns:xlink="http://www.w3.org/1999/xlink" x="0px" y="0px"
	 viewBox="0 0 747 254" style="enable-background:new 0 0 747 254;" xml:space="preserve">
<style type="text/css">
	.st0{fill:#999999;}
	.st1{fill:#0791E6;}
	.st2{fill:#97CA3F;}
	.st3{fill:none;stroke:#000000;stroke-width:0.7881;stroke-miterlimit:10;}
	.st4{fill:#E4E9A4;}
</style>
<g>
	<path class="st0" d="M125.1,137"/>
	<path class="st0" d="M125.1,137"/>
	<path class="st0" d="M63.1,52.3c0-0.4,0.1-0.8,0.1-1.2c0-8.7-7.1-15.8-15.8-15.8S31.6,42.3,31.6,51s7.1,15.8,15.8,15.8
		c0.4,0,0.7,0,1.1-0.1c-33.9,40.9-18.8,87.5-18.8,87.5l34.7-10c0,0-9.2-33.9,17-60.1s59.3-15.4,59.3-15.4l9.2-35.4
		C149.8,33.3,103.8,19.1,63.1,52.3z"/>
	<path class="st0" d="M186.6,205.9c0,0.4-0.1,0.8-0.1,1.2c0,8.7,7.1,15.8,15.8,15.8c8.7,0,15.8-7.1,15.8-15.8
		c0-8.7-7.1-15.8-15.8-15.8c-0.4,0-0.7,0-1.1,0.1c33.9-40.9,18.8-87.5,18.8-87.5l-34.7,10c0,0,9.2,33.9-17,60.1
		s-59.3,15.4-59.3,15.4l-9.2,35.4C99.9,224.8,145.9,239.1,186.6,205.9z"/>
	<path class="st0" d="M210.7,48.7C162.9,1,106.7,11,95.1,15.6l10,35.4c0,0,35.8-11.5,68.3,13.2c-7.7,0.9-13.6,7.4-13.6,15.3
		c0,8.5,6.9,15.4,15.4,15.4c7.9,0,14.3-5.9,15.3-13.5c24.2,32.7,13.2,68.9,13.2,68.9l35.4,9.2C239.2,159.7,256.9,95,210.7,48.7z"/>
	<path class="st0" d="M40.3,209.9c47.8,47.8,104,37.8,115.6,33.1l-10-35.4c0,0-35.8,11.5-68.3-13.2c7.7-0.9,13.6-7.4,13.6-15.3
		c0-8.5-6.9-15.4-15.4-15.4c-7.9,0-14.3,5.9-15.3,13.5c-24.2-32.7-13.2-68.9-13.2-68.9l-35.4-9.2C11.8,98.9-5.9,163.6,40.3,209.9z"
		/>
	<g>
		<path class="st0" d="M317.6,99v9.7h-18.9v51.8h-11.3v-51.8h-18.9V99H317.6z"/>
		<path class="st0" d="M337.5,112.9c3.5,0,6.5,0.4,9,1.3s4.4,2.1,5.8,3.7c1.4,1.6,2.5,3.5,3.1,5.8c0.6,2.3,0.9,4.8,0.9,7.5v28.1
			c-1.7,0.4-4.2,0.8-7.5,1.3c-3.3,0.5-7.1,0.8-11.3,0.8c-2.8,0-5.3-0.3-7.6-0.8c-2.3-0.5-4.3-1.4-5.9-2.6c-1.6-1.2-2.9-2.7-3.8-4.6
			c-0.9-1.9-1.4-4.2-1.4-7c0-2.7,0.5-4.9,1.6-6.7c1-1.8,2.4-3.3,4.2-4.5c1.8-1.2,3.8-2,6.2-2.5c2.3-0.5,4.8-0.8,7.3-0.8
			c1.2,0,2.4,0.1,3.7,0.2c1.3,0.1,2.7,0.4,4.2,0.8v-1.8c0-1.2-0.1-2.4-0.4-3.5c-0.3-1.1-0.8-2.1-1.6-3c-0.7-0.9-1.7-1.5-2.9-2
			c-1.2-0.5-2.7-0.7-4.6-0.7c-2.5,0-4.8,0.2-6.8,0.5c-2.1,0.4-3.8,0.8-5.1,1.2l-1.3-8.7c1.4-0.5,3.3-0.9,5.9-1.4
			C331.7,113.1,334.5,112.9,337.5,112.9z M338.4,152.9c3.3,0,5.8-0.2,7.5-0.5v-11.9c-0.6-0.2-1.4-0.4-2.6-0.5
			c-1.1-0.2-2.4-0.3-3.7-0.3c-1.2,0-2.4,0.1-3.6,0.3c-1.2,0.2-2.3,0.5-3.3,1c-1,0.5-1.8,1.1-2.3,2c-0.6,0.9-0.9,1.9-0.9,3.2
			c0,2.5,0.8,4.3,2.4,5.3C333.5,152.4,335.6,152.9,338.4,152.9z"/>
		<path class="st0" d="M385.5,161.3c-3.2-0.1-5.8-0.4-7.9-1.1c-2.1-0.7-3.8-1.6-5-2.8c-1.2-1.2-2.1-2.7-2.6-4.5
			c-0.5-1.8-0.8-3.9-0.8-6.2V93.4l10.7-1.8v53.1c0,1.3,0.1,2.4,0.3,3.3c0.2,0.9,0.6,1.6,1.1,2.3c0.5,0.6,1.3,1.1,2.2,1.4
			c0.9,0.3,2.1,0.6,3.5,0.8L385.5,161.3z"/>
		<path class="st0" d="M393.2,137.4c0-4.1,0.6-7.7,1.8-10.7c1.2-3.1,2.8-5.6,4.8-7.7c2-2,4.3-3.6,6.9-4.6c2.6-1,5.3-1.6,8-1.6
			c6.4,0,11.4,2,14.9,5.9c3.6,4,5.4,9.9,5.4,17.7c0,0.6,0,1.3,0,2c0,0.7-0.1,1.4-0.1,2h-30.6c0.3,3.7,1.6,6.6,3.9,8.6
			c2.3,2,5.7,3.1,10.2,3.1c2.6,0,5-0.2,7.1-0.7c2.2-0.5,3.9-1,5.1-1.5l1.4,8.8c-0.6,0.3-1.4,0.6-2.4,0.9c-1,0.3-2.2,0.6-3.5,0.9
			c-1.3,0.3-2.8,0.5-4.3,0.7c-1.5,0.2-3.1,0.3-4.7,0.3c-4.1,0-7.6-0.6-10.6-1.8c-3-1.2-5.5-2.9-7.4-5.1c-2-2.2-3.4-4.7-4.3-7.6
			C393.6,144.1,393.2,140.9,393.2,137.4z M424.3,132.7c0-1.5-0.2-2.9-0.6-4.2c-0.4-1.3-1-2.5-1.8-3.5c-0.8-1-1.8-1.7-2.9-2.3
			c-1.2-0.6-2.5-0.8-4.1-0.8c-1.7,0-3.1,0.3-4.3,0.9c-1.2,0.6-2.3,1.4-3.1,2.4c-0.9,1-1.5,2.2-2,3.5c-0.5,1.3-0.8,2.6-1,4H424.3z"/>
		<path class="st0" d="M446.4,115.5c2.1-0.6,4.8-1.2,8.1-1.7c3.3-0.5,7-0.8,11-0.8c3.8,0,6.9,0.5,9.5,1.6c2.5,1,4.6,2.5,6.1,4.3
			c1.5,1.9,2.6,4.1,3.2,6.7c0.6,2.6,0.9,5.5,0.9,8.6v26.1h-10.7V136c0-2.5-0.2-4.6-0.5-6.3c-0.3-1.7-0.9-3.2-1.6-4.3
			c-0.7-1.1-1.7-1.9-3-2.4c-1.3-0.5-2.8-0.8-4.7-0.8c-1.4,0-2.8,0.1-4.3,0.3c-1.5,0.2-2.6,0.3-3.3,0.4v37.4h-10.7V115.5z"/>
		<path class="st0" d="M497.7,101.8l10.7-1.8v14h16.5v9h-16.5v18.9c0,3.7,0.6,6.4,1.8,8c1.2,1.6,3.2,2.4,6,2.4c2,0,3.7-0.2,5.2-0.6
			c1.5-0.4,2.7-0.8,3.6-1.2l1.8,8.5c-1.2,0.5-2.9,1.1-4.9,1.6c-2,0.6-4.4,0.8-7.1,0.8c-3.3,0-6.1-0.4-8.3-1.3
			c-2.2-0.9-4-2.2-5.3-3.9c-1.3-1.7-2.2-3.7-2.7-6.1c-0.5-2.4-0.8-5.1-0.8-8.2V101.8z"/>
		<path class="st0" d="M587.7,140.2c0,3-0.3,5.8-1,8.4c-0.7,2.6-1.8,4.9-3.4,6.8s-3.8,3.5-6.6,4.6c-2.7,1.1-6.2,1.7-10.4,1.7
			c-3.9,0-7.3-0.5-10.2-1.6c-2.9-1.1-5.1-2.3-6.6-3.5l4-8.8c1.5,1,3.3,2,5.5,2.9c2.2,0.9,4.4,1.4,6.6,1.4c3.8,0,6.5-0.9,8.2-2.8
			c1.7-1.9,2.6-5.1,2.6-9.8V99h11.3V140.2z"/>
		<path class="st0" d="M643.4,137.2c0,3.7-0.5,7-1.6,10c-1.1,3-2.6,5.6-4.5,7.7c-2,2.1-4.3,3.8-7.1,5c-2.7,1.2-5.8,1.8-9.1,1.8
			c-3.3,0-6.3-0.6-9-1.8c-2.7-1.2-5.1-2.8-7-5c-2-2.1-3.5-4.7-4.6-7.7c-1.1-3-1.6-6.4-1.6-10c0-3.7,0.5-7,1.6-10
			c1.1-3,2.6-5.5,4.6-7.7c2-2.1,4.3-3.8,7-4.9c2.7-1.2,5.7-1.7,9-1.7s6.3,0.6,9,1.7c2.7,1.2,5.1,2.8,7,4.9c2,2.1,3.5,4.7,4.6,7.7
			C642.8,130.2,643.4,133.5,643.4,137.2z M632.4,137.2c0-4.6-1-8.3-3-11c-2-2.7-4.7-4-8.3-4c-3.5,0-6.3,1.3-8.3,4c-2,2.7-3,6.3-3,11
			c0,4.7,1,8.4,3,11.1c2,2.7,4.7,4.1,8.3,4.1c3.5,0,6.3-1.4,8.3-4.1C631.4,145.5,632.4,141.9,632.4,137.2z"/>
		<path class="st0" d="M696.2,137.3c0,3.7-0.5,7.1-1.6,10.1c-1.1,3-2.7,5.5-4.7,7.7c-2,2.1-4.5,3.8-7.4,4.9
			c-2.9,1.1-6.2,1.7-9.8,1.7c-3.5,0-6.9-0.3-10.2-0.8c-3.2-0.5-5.9-1.1-8-1.8V93.4l10.7-1.8v24c1.2-0.7,2.8-1.2,4.6-1.8
			c1.8-0.5,3.8-0.8,6-0.8c3.2,0,6.2,0.6,8.7,1.7c2.6,1.2,4.7,2.8,6.4,4.9c1.7,2.1,3,4.7,3.9,7.7
			C695.8,130.4,696.2,133.7,696.2,137.3z M685.2,137.1c0-4.6-0.9-8.2-2.7-10.8c-1.8-2.7-4.7-4-8.6-4c-1.8,0-3.4,0.3-5,0.8
			c-1.6,0.5-2.8,1.1-3.8,1.8v26.7c0.8,0.2,1.8,0.3,3,0.5c1.2,0.1,2.7,0.2,4.4,0.2c4,0,7.1-1.3,9.3-4
			C684.1,145.5,685.2,141.8,685.2,137.1z"/>
		<path class="st0" d="M718.9,152.7c2.8,0,4.9-0.3,6.2-1c1.3-0.7,2-1.8,2-3.5c0-1.5-0.7-2.8-2.1-3.8c-1.4-1-3.7-2.1-6.9-3.3
			c-2-0.7-3.7-1.5-5.4-2.3c-1.6-0.8-3-1.7-4.2-2.8c-1.2-1.1-2.1-2.4-2.8-3.9c-0.7-1.5-1-3.4-1-5.5c0-4.3,1.6-7.6,4.7-10.1
			c3.1-2.5,7.4-3.7,12.8-3.7c2.7,0,5.3,0.3,7.8,0.8c2.5,0.5,4.3,1,5.6,1.5l-2,8.7c-1.2-0.5-2.7-1-4.5-1.5c-1.8-0.4-4-0.7-6.4-0.7
			c-2.2,0-4,0.4-5.3,1.1c-1.4,0.7-2,1.9-2,3.4c0,0.8,0.1,1.4,0.4,2c0.3,0.6,0.7,1.1,1.4,1.6c0.7,0.5,1.5,1,2.6,1.5
			c1.1,0.5,2.4,1,3.9,1.6c2.5,0.9,4.7,1.9,6.5,2.8c1.8,0.9,3.2,2,4.4,3.1c1.2,1.2,2,2.5,2.5,3.9c0.5,1.5,0.8,3.3,0.8,5.3
			c0,4.4-1.6,7.8-4.9,10.1s-8,3.4-14.1,3.4c-4.1,0-7.4-0.3-9.8-1c-2.5-0.7-4.2-1.2-5.2-1.6l1.9-9c1.6,0.7,3.5,1.3,5.7,1.9
			C713.6,152.4,716.1,152.7,718.9,152.7z"/>
	</g>
	<g>
		<path class="st1" d="M314.1,95.5v9.7h-18.9V157H284v-51.8h-18.9v-9.7H314.1z"/>
		<path class="st1" d="M334,109.4c3.5,0,6.5,0.4,9,1.3c2.4,0.9,4.4,2.1,5.8,3.7c1.4,1.6,2.5,3.5,3.1,5.8c0.6,2.3,0.9,4.8,0.9,7.5
			v28.1c-1.7,0.4-4.2,0.8-7.5,1.3c-3.3,0.5-7.1,0.8-11.3,0.8c-2.8,0-5.3-0.3-7.6-0.8c-2.3-0.5-4.3-1.4-5.9-2.6
			c-1.6-1.2-2.9-2.7-3.8-4.6c-0.9-1.9-1.4-4.2-1.4-7c0-2.7,0.5-4.9,1.6-6.7c1-1.8,2.4-3.3,4.2-4.5s3.8-2,6.2-2.5
			c2.3-0.5,4.8-0.8,7.3-0.8c1.2,0,2.4,0.1,3.7,0.2s2.7,0.4,4.2,0.8v-1.8c0-1.2-0.1-2.4-0.4-3.5c-0.3-1.1-0.8-2.1-1.6-3
			c-0.7-0.9-1.7-1.5-2.9-2c-1.2-0.5-2.7-0.7-4.6-0.7c-2.5,0-4.8,0.2-6.8,0.5c-2.1,0.4-3.8,0.8-5.1,1.2l-1.3-8.7
			c1.4-0.5,3.3-0.9,5.9-1.4C328.3,109.7,331.1,109.4,334,109.4z M334.9,149.4c3.3,0,5.8-0.2,7.5-0.5V137c-0.6-0.2-1.4-0.4-2.6-0.5
			c-1.1-0.2-2.4-0.3-3.7-0.3c-1.2,0-2.4,0.1-3.6,0.3c-1.2,0.2-2.3,0.5-3.3,1c-1,0.5-1.8,1.1-2.3,2c-0.6,0.9-0.9,1.9-0.9,3.2
			c0,2.5,0.8,4.3,2.4,5.3C330,148.9,332.2,149.4,334.9,149.4z"/>
		<path class="st1" d="M382.1,157.8c-3.2-0.1-5.8-0.4-7.9-1.1c-2.1-0.7-3.8-1.6-5-2.8c-1.2-1.2-2.1-2.7-2.6-4.5
			c-0.5-1.8-0.8-3.9-0.8-6.2V89.9l10.7-1.8v53.1c0,1.3,0.1,2.4,0.3,3.3c0.2,0.9,0.6,1.6,1.1,2.3c0.5,0.6,1.3,1.1,2.2,1.4
			c0.9,0.3,2.1,0.6,3.5,0.8L382.1,157.8z"/>
		<path class="st1" d="M389.7,134c0-4.1,0.6-7.7,1.8-10.7c1.2-3.1,2.8-5.6,4.8-7.7c2-2,4.3-3.6,6.9-4.6c2.6-1,5.3-1.6,8-1.6
			c6.4,0,11.4,2,14.9,5.9c3.6,4,5.4,9.9,5.4,17.7c0,0.6,0,1.3,0,2c0,0.7-0.1,1.4-0.1,2h-30.6c0.3,3.7,1.6,6.6,3.9,8.6
			c2.3,2,5.7,3.1,10.2,3.1c2.6,0,5-0.2,7.1-0.7c2.2-0.5,3.9-1,5.1-1.5l1.4,8.8c-0.6,0.3-1.4,0.6-2.4,0.9c-1,0.3-2.2,0.6-3.5,0.9
			c-1.3,0.3-2.8,0.5-4.3,0.7s-3.1,0.3-4.7,0.3c-4.1,0-7.6-0.6-10.6-1.8c-3-1.2-5.5-2.9-7.4-5.1c-2-2.2-3.4-4.7-4.3-7.6
			C390.2,140.7,389.7,137.5,389.7,134z M420.8,129.2c0-1.5-0.2-2.9-0.6-4.2c-0.4-1.3-1-2.5-1.8-3.5c-0.8-1-1.8-1.7-2.9-2.3
			c-1.2-0.6-2.5-0.8-4.1-0.8c-1.7,0-3.1,0.3-4.3,0.9c-1.2,0.6-2.3,1.4-3.1,2.4c-0.9,1-1.5,2.2-2,3.5c-0.5,1.3-0.8,2.6-1,4H420.8z"/>
		<path class="st1" d="M442.9,112.1c2.1-0.6,4.8-1.2,8.1-1.7c3.3-0.5,7-0.8,11-0.8c3.8,0,6.9,0.5,9.5,1.6c2.5,1,4.6,2.5,6.1,4.3
			c1.5,1.9,2.6,4.1,3.2,6.7c0.6,2.6,0.9,5.5,0.9,8.6V157h-10.7v-24.4c0-2.5-0.2-4.6-0.5-6.3c-0.3-1.7-0.9-3.2-1.6-4.3
			c-0.7-1.1-1.7-1.9-3-2.4c-1.3-0.5-2.8-0.8-4.7-0.8c-1.4,0-2.8,0.1-4.3,0.3s-2.6,0.3-3.3,0.4V157h-10.7V112.1z"/>
		<path class="st1" d="M494.2,98.3l10.7-1.8v14h16.5v9H505v18.9c0,3.7,0.6,6.4,1.8,8c1.2,1.6,3.2,2.4,6,2.4c2,0,3.7-0.2,5.2-0.6
			c1.5-0.4,2.7-0.8,3.6-1.2l1.8,8.5c-1.2,0.5-2.9,1.1-4.9,1.6c-2,0.6-4.4,0.8-7.1,0.8c-3.3,0-6.1-0.4-8.3-1.3
			c-2.2-0.9-4-2.2-5.3-3.9c-1.3-1.7-2.2-3.7-2.7-6.1c-0.5-2.4-0.8-5.1-0.8-8.2V98.3z"/>
		<path class="st2" d="M584.2,136.7c0,3-0.3,5.8-1,8.4c-0.7,2.6-1.8,4.9-3.4,6.8c-1.6,2-3.8,3.5-6.6,4.6c-2.7,1.1-6.2,1.7-10.4,1.7
			c-3.9,0-7.3-0.5-10.2-1.6c-2.9-1.1-5.1-2.3-6.6-3.5l4-8.8c1.5,1,3.3,2,5.5,2.9c2.2,0.9,4.4,1.4,6.6,1.4c3.8,0,6.5-0.9,8.2-2.8
			c1.7-1.9,2.6-5.1,2.6-9.8V95.5h11.3V136.7z"/>
		<path class="st2" d="M639.9,133.7c0,3.7-0.5,7-1.6,10c-1.1,3-2.6,5.6-4.5,7.7c-2,2.1-4.3,3.8-7.1,5c-2.7,1.2-5.8,1.8-9.1,1.8
			c-3.3,0-6.3-0.6-9-1.8c-2.7-1.2-5.1-2.8-7-5c-2-2.1-3.5-4.7-4.6-7.7c-1.1-3-1.6-6.4-1.6-10c0-3.7,0.5-7,1.6-10
			c1.1-3,2.6-5.5,4.6-7.7c2-2.1,4.3-3.8,7-4.9c2.7-1.2,5.7-1.7,9-1.7s6.3,0.6,9,1.7c2.7,1.2,5.1,2.8,7,4.9c2,2.1,3.5,4.7,4.6,7.7
			C639.4,126.7,639.9,130.1,639.9,133.7z M628.9,133.7c0-4.6-1-8.3-3-11c-2-2.7-4.7-4-8.3-4c-3.5,0-6.3,1.3-8.3,4c-2,2.7-3,6.3-3,11
			c0,4.7,1,8.4,3,11.1c2,2.7,4.7,4.1,8.3,4.1c3.5,0,6.3-1.4,8.3-4.1C627.9,142.1,628.9,138.4,628.9,133.7z"/>
		<path class="st2" d="M692.8,133.8c0,3.7-0.5,7.1-1.6,10.1c-1.1,3-2.7,5.5-4.7,7.7c-2,2.1-4.5,3.8-7.4,4.9
			c-2.9,1.1-6.2,1.7-9.8,1.7c-3.5,0-6.9-0.3-10.2-0.8c-3.2-0.5-5.9-1.1-8-1.8V89.9l10.7-1.8v24c1.2-0.7,2.8-1.2,4.6-1.8
			c1.8-0.5,3.8-0.8,6-0.8c3.2,0,6.2,0.6,8.7,1.7c2.6,1.2,4.7,2.8,6.4,4.9c1.7,2.1,3,4.7,3.9,7.7
			C692.3,126.9,692.8,130.2,692.8,133.8z M681.8,133.6c0-4.6-0.9-8.2-2.7-10.8c-1.8-2.7-4.7-4-8.6-4c-1.8,0-3.4,0.3-5,0.8
			c-1.6,0.5-2.8,1.1-3.8,1.8v26.7c0.8,0.2,1.8,0.3,3,0.5c1.2,0.1,2.7,0.2,4.4,0.2c4,0,7.1-1.3,9.3-4
			C680.7,142.1,681.8,138.4,681.8,133.6z"/>
		<path class="st2" d="M715.5,149.2c2.8,0,4.9-0.3,6.2-1c1.3-0.7,2-1.8,2-3.5c0-1.5-0.7-2.8-2.1-3.8c-1.4-1-3.7-2.1-6.9-3.3
			c-2-0.7-3.7-1.5-5.4-2.3c-1.6-0.8-3-1.7-4.2-2.8c-1.2-1.1-2.1-2.4-2.8-3.9c-0.7-1.5-1-3.4-1-5.5c0-4.3,1.6-7.6,4.7-10.1
			c3.1-2.5,7.4-3.7,12.8-3.7c2.7,0,5.3,0.3,7.8,0.8c2.5,0.5,4.3,1,5.6,1.5l-2,8.7c-1.2-0.5-2.7-1-4.5-1.5c-1.8-0.4-4-0.7-6.4-0.7
			c-2.2,0-4,0.4-5.3,1.1c-1.4,0.7-2,1.9-2,3.4c0,0.8,0.1,1.4,0.4,2c0.3,0.6,0.7,1.1,1.4,1.6c0.7,0.5,1.5,1,2.6,1.5
			c1.1,0.5,2.4,1,3.9,1.6c2.5,0.9,4.7,1.9,6.5,2.8c1.8,0.9,3.2,2,4.4,3.1c1.2,1.2,2,2.5,2.5,3.9c0.5,1.5,0.8,3.3,0.8,5.3
			c0,4.4-1.6,7.8-4.9,10.1s-8,3.4-14.1,3.4c-4.1,0-7.4-0.3-9.8-1c-2.5-0.7-4.2-1.2-5.2-1.6l1.9-9c1.6,0.7,3.5,1.3,5.7,1.9
			C710.1,148.9,712.6,149.2,715.5,149.2z"/>
	</g>
	<path class="st3" d="M121.7,133.5"/>
	<path class="st3" d="M121.7,133.5"/>
	<path class="st1" d="M59.6,48.8c0-0.4,0.1-0.8,0.1-1.2c0-8.7-7.1-15.8-15.8-15.8s-15.8,7.1-15.8,15.8s7.1,15.8,15.8,15.8
		c0.4,0,0.7,0,1.1-0.1c-33.9,40.9-18.8,87.5-18.8,87.5l34.7-10c0,0-9.2-33.9,17-60.1s59.3-15.4,59.3-15.4l9.2-35.4
		C146.4,29.9,100.3,15.6,59.6,48.8z"/>
	<path class="st1" d="M183.1,202.4c0,0.4-0.1,0.8-0.1,1.2c0,8.7,7.1,15.8,15.8,15.8c8.7,0,15.8-7.1,15.8-15.8
		c0-8.7-7.1-15.8-15.8-15.8c-0.4,0-0.7,0-1.1,0.1c33.9-40.9,18.8-87.5,18.8-87.5l-34.7,10c0,0,9.2,33.9-17,60.1
		s-59.3,15.4-59.3,15.4l-9.2,35.4C96.4,221.4,142.5,235.6,183.1,202.4z"/>
	<path class="st4" d="M207.2,45.3C159.5-2.5,103.2,7.5,91.7,12.1l10,35.4c0,0,35.8-11.5,68.3,13.2c-7.7,0.9-13.6,7.4-13.6,15.3
		c0,8.5,6.9,15.4,15.4,15.4c7.9,0,14.3-5.9,15.3-13.5c24.2,32.7,13.2,68.9,13.2,68.9l35.4,9.2C235.7,156.2,253.5,91.5,207.2,45.3z"
		/>
	<path class="st2" d="M36.8,206.4c47.8,47.8,104,37.8,115.6,33.1l-10-35.4c0,0-35.8,11.5-68.3-13.2c7.7-0.9,13.6-7.4,13.6-15.3
		c0-8.5-6.9-15.4-15.4-15.4c-7.9,0-14.3,5.9-15.3,13.5c-24.2-32.7-13.2-68.9-13.2-68.9L8.3,95.4C8.3,95.4-9.4,160.2,36.8,206.4z"/>
</g>
</svg>
