<?xml version="1.0" encoding="utf-8"?>
<!-- Generator: Adobe Illustrator 23.0.2, SVG Export Plug-In . SVG Version: 6.00 Build 0)  -->
<svg version="1.1" id="Layer_1" xmlns="http://www.w3.org/2000/svg" xmlns:xlink="http://www.w3.org/1999/xlink" x="0px" y="0px"
	 viewBox="0 0 25 25" style="enable-background:new 0 0 25 25;" xml:space="preserve">
<style type="text/css">
	.st0{fill:#0791E6;}
</style>
<g>
	<g>
		<g>
			<path class="st0" d="M12.5,0C5.6,0,0,5.6,0,12.5S5.6,25,12.5,25S25,19.4,25,12.5S19.4,0,12.5,0z M12.5,23.3
				c-6,0-10.8-4.8-10.8-10.8S6.5,1.7,12.5,1.7s10.8,4.8,10.8,10.8S18.5,23.3,12.5,23.3z"/>
		</g>
	</g>
	<g>
		<g>
			<path class="st0" d="M17.1,12l-5.5-5.5c-0.3-0.3-0.8-0.3-1.2,0c-0.3,0.3-0.3,0.8,0,1.2l4.8,4.8l-4.8,4.8c-0.3,0.3-0.3,0.8,0,1.2
				c0.2,0.2,0.3,0.2,0.6,0.2c0.2,0,0.4-0.1,0.7-0.2l5.4-5.4c0.2-0.2,0.2-0.3,0.2-0.6C17.3,12.3,17.2,12.2,17.1,12z"/>
		</g>
	</g>
</g>
</svg>
