<svg id="_x31__x2C_5" enable-background="new 0 0 36 36" height="512" viewBox="0 0 36 36" width="512" xmlns="http://www.w3.org/2000/svg"><g><path d="m8.377 31.833c6.917 0 11.667 3.583 15 3.583s10.333-1.916 10.333-17.249-9.417-17.584-13.083-17.584c-17.167 0-24.5 31.25-12.25 31.25z" fill="#efefef"/></g><g><g><path d="m28.533 11.033h1v2h-1z" fill="#a4afc1" transform="matrix(.707 -.707 .707 .707 -.007 24.049)"/></g><g><path d="m24.467 6.967h1v2h-1z" fill="#a4afc1" transform="matrix(.707 -.707 .707 .707 1.677 19.984)"/></g><g><path d="m28.033 7.644h2v1h-2z" fill="#a4afc1" transform="matrix(.707 -.707 .707 .707 2.745 22.915)"/></g></g><g><path d="m21.25 25.25h-14.5v-3.5c0-1.657 1.343-3 3-3h8.5c1.657 0 3 1.343 3 3z" fill="#f3f3f1"/></g><g><circle cx="14" cy="11.5" fill="#f3f3f1" r="3.75"/></g><g><path d="m17.74 11.3c-1.7.26-2.74-1.55-2.74-1.55-1.76 1.64-3.99 1.6-4.74 1.53.11-1.97 1.74-3.53 3.74-3.53s3.64 1.57 3.74 3.55z" fill="#2fdf84"/></g><g><path d="m27.34 22.75h-2.5s.47-.7.47-1.87c0-1.4-.7-2.11-1.17-2.11-.46 0-.95.48-.95 1.65 0 1.228-1.447 2.401-2.091 2.833-.174-.295-.481-.503-.849-.503h-.5c-.552 0-1 .448-1 1v4.5c0 .552.448 1 1 1h.5c.55 0 1-.45 1-1v-.26c.56.32 2.31 1.26 4.99 1.26h.51c.94 0 1.79-.68 1.94-1.6.01 0 .56-2.72.56-2.99 0-1.03-.84-1.91-1.91-1.91z" fill="#2fdf84"/></g><g><path d="m21 28.25v-4.5c0-.216.083-.405.199-.568-.032.023-.071.052-.1.071-.174-.295-.481-.503-.849-.503h-.5c-.552 0-1 .448-1 1v4.5c0 .552.448 1 1 1h.5c.383 0 .706-.225.874-.543-.072-.139-.124-.289-.124-.457z" fill="#00b871"/></g><g><path d="m22 22.75h.5c.368 0 .675.208.849.503.528-.354 1.585-1.21 1.952-2.182.003-.064.009-.124.009-.191 0-1.4-.7-2.11-1.17-2.11-.46 0-.95.48-.95 1.65 0 .929-.827 1.825-1.51 2.395.102-.035.207-.065.32-.065z" fill="#00b871"/></g><g><path d="m12 18.75h-2.25c-1.657 0-3 1.343-3 3v3.5h2.25v-3.5c0-1.657 1.343-3 3-3z" fill="#d5dbe1"/></g><g><path d="m12.5 11.5c0-1.676 1.107-3.079 2.625-3.559-.357-.113-.73-.191-1.125-.191-2.071 0-3.75 1.679-3.75 3.75s1.679 3.75 3.75 3.75c.395 0 .768-.078 1.125-.191-1.518-.48-2.625-1.883-2.625-3.559z" fill="#d5dbe1"/></g><g><path d="m15.123 7.939c-.356-.113-.729-.189-1.123-.189-2 0-3.63 1.56-3.74 3.53.415.039 1.289.057 2.281-.203.166-1.488 1.195-2.699 2.582-3.138z" fill="#00b871"/></g><g><path d="m16 26h-9.25c-.414 0-.75-.336-.75-.75v-3.5c0-2.068 1.683-3.75 3.75-3.75h8.75c.589 0 1.149.131 1.665.389l.671.335-.671 1.342-.67-.335c-.307-.153-.641-.231-.995-.231h-8.75c-1.24 0-2.25 1.009-2.25 2.25v2.75h8.5z"/></g><g><path d="m17.398 12.076c-1.161 0-2.021-.694-2.527-1.255-1.885 1.337-4.014 1.27-4.682 1.206l.141-1.493c.583.055 2.602.119 4.158-1.332.168-.156.397-.227.623-.193.227.034.425.169.539.368.006.01.808 1.351 1.977 1.182l.227 1.482c-.157.024-.309.035-.456.035z"/></g><g><path d="m14 16c-2.481 0-4.5-2.019-4.5-4.5s2.019-4.5 4.5-4.5 4.5 2.019 4.5 4.5-2.019 4.5-4.5 4.5zm0-7.5c-1.654 0-3 1.346-3 3s1.346 3 3 3 3-1.346 3-3-1.346-3-3-3z"/></g><g><path d="m20.25 30h-.5c-.965 0-1.75-.785-1.75-1.75v-4.5c0-.965.785-1.75 1.75-1.75h.5c.965 0 1.75.785 1.75 1.75v4.5c0 .965-.785 1.75-1.75 1.75zm-.5-6.5c-.138 0-.25.112-.25.25v4.5c0 .138.112.25.25.25h.5c.136 0 .25-.114.25-.25v-4.5c0-.138-.112-.25-.25-.25z"/></g><g><path d="m26.75 30h-.51c-2.761 0-4.388-.695-5.112-1.108l.744-1.303c.479.274 1.864.911 4.368.911h.51c.584 0 1.111-.427 1.2-.971.005-.028.011-.056.019-.083.071-.31.509-2.517.532-2.812-.001-.613-.522-1.134-1.161-1.134h-2.5c-.277 0-.531-.153-.662-.397-.13-.245-.115-.541.039-.771s.343-.551.343-1.452c0-.897-.353-1.317-.48-1.368.042.029-.139.259-.139.908 0 1.676-1.625 2.871-2.324 3.306l-.793-1.272c.781-.488 1.617-1.278 1.617-2.034 0-1.658.854-2.4 1.699-2.4.943 0 1.92 1.07 1.92 2.86 0 .427-.053.803-.128 1.12h1.408c1.467 0 2.66 1.193 2.66 2.66 0 .092 0 .247-.29 1.739-.124.637-.208 1.072-.292 1.37l.013.002c-.208 1.271-1.361 2.229-2.681 2.229z"/></g></svg>